<svg xmlns="http://www.w3.org/2000/svg">
	<symbol id="building-hut-south" viewBox="0 0 512 512">
		<path fill="#231c10" d="M287.697 296.027l-26.11 47.668-86.308-43.573 59.16-36.79 53.25 32.695"/>
		<path fill="#896328" d="M379.718 287.885v-10.687l2.342-11.567-.44-10.83-.99-26.43-108.993 27.27-4.702 12.79-8.24 70.52 16.15 11.39 104.292-26.56.727-8.79.765-6-.92-21.08"/>
		<path fill="#aa8a51" d="M297.15 325.582c4.07-1.1 8.436-2.055 12.088-4.24-2.428-1.01-14.615 3.693-17.077 3.975-3.39.39-13.42-.855-16.68.16-.47.148-.16-1.317-.63-1.17l8.56-.868c-.14.04-7.95-.85-8.55-1.22a72.36 72.36 0 0 0-8.11-3c.05-.34 7.79 1.34 8.11 1.19.41-.19-.45-3.73 0-3.71.9.03.83-5.22 0-5.98.41-.05-.25-4.2-.25-4.2.68-1.49 3.85-1.51 3.85-1.51 1.29-.4 15.01 2.89 15.89.66-1.67-.96-6-1.89-7.89-2.13h-11.59c-.86-1.14 6.7-2 6.24-2.02-.61-.02-7.19-3.18-6.66-3.29.99-.2.44-42.94.44-42.94l-19.68-8.5c-.59 10.32-4.66 43.29-4.66 43.29l-.74 18.29c2.1.67 3.27 2.23 5.48 2.23-2.08.41-2.42.01-4.12-.79l-1.39-.22-.86 13.62a44.877 44.877 0 0 1 6.22 1.68c-1.17.87-5.27-.81-6.29-.66l2.78.87-2.895.36-.363 6.15-20.93-10.82-13-.75 60.44 30.22V347l.874-2.05-.58-.923c-3.16-1.19-7.26-5.03-8.54-5.708.1-.29 1.62.04 1.62-.26 1.71-.35 5.01 2.09 6.62 1.42.49-.2-7.045-3.5-6.64-3.85.06-.06.37-.31.69-.56l6.09 1.17c.24-.12-.42-3.02-.14-3.01a11.354 11.354 0 0 0 6.587-1.5c2.265-1.23 7.46-.54 9.467-2.15-2.25 1.88-12.392-.08-15.203.18-.924.09 18.93-3.55 21.46-4.23z"/>
		<path fill="#704e22" d="M364.067 300.033c2.86.218 13.462-1.912 15.794-2.728l-.07-1.825a7.606 7.606 0 0 0-3.04-.61v.452a16.326 16.326 0 0 0-3.11.68c-.9.34-1.56.882-1.37 1.423-.84.004-12.32 2.7-13.16 2.705-.2.454 4.02-.17 4.98-.097zm15.58 2.81l-1.29.486a14.927 14.927 0 0 0-6.004.85c-2.565.76-5.14 1.53-7.46 2.46-2.837 1.13-5.564 2.57-9.237 2.79 2.886.31 5.247-1.01 7.537-1.9a47.946 47.946 0 0 1 8.513-2.07l8.568-1.56-.045-1.05a4.286 4.286 0 0 0-.59-.03zm-18.895-28.86a29.422 29.422 0 0 0 4.935-1.608c3.03-.973 6.89-1.078 10.348-1.64a30.895 30.895 0 0 0 4.716-1.136l.83-4.08c-2.17.39-4.28.9-6.36 1.4l-2.07.49a32.705 32.705 0 0 1-8.8 1.24 24.625 24.625 0 0 0 7.74.81l-6.88.59a17.35 17.35 0 0 0-2.22.29 13.55 13.55 0 0 0-2.84 1.1 30.005 30.005 0 0 1-11.53 2.5l8.61.15a21.358 21.358 0 0 0 3.55-.14zm-55.842 38.62l22.08-5.575 22.082-5.673-3.843-3.772-44.17 11.25 3.84 3.77"/>
		<path fill="#aa8a51" d="M349.072 301.355l.098-13.253-3.844-3.772-.097 13.253 3.84 3.772"/>
		<path fill="#0b1303" d="M326.99 272.194l.577-.602 17.76 12.738 3.843 3.772-22.18-15.908" opacity=".9"/>
		<path fill="#231c10" d="M345.32 285.34l-.09 12.243-44.164 11.25v-11.25l25.925-25.39 18.33 13.147"/>
		<path fill="#cfa85e" d="M201.49 300.263l-4.215-1.687.527 97.63 4.216 2.2-.53-98.143"/>
		<path fill="#a57a1b" d="M206.03 303.393h-4.605l.593 95.014 4.178-2.195-.166-92.82"/>
		<path fill="#cfa85e" d="M116.645 272.144l-4.8 3.75-.1 77.16 4.197 2.1.703-83.01"/>
		<path fill="#a57a1b" d="M120.405 268.106l-3.76 2.89-.703 84.158 4.197-2.098.26-84.95"/>
		<path fill="#896328" d="M296.756 134.642l-3.942-11.425-75.356 47.56 3.942 11.427 75.356-47.562"/>
		<path fill="#d6b982" d="M199.747 202.29l-29.615 28.126 121.315-96.072-68.745 36.51s-9.92 10.178-11.678 11.35c-.586 0 7.71 1.244 7.125 1.244-1.44.655-8.33 1.652-9.86 2.157l-5.96 8.482c1.46 2.05 3.8.586 3.51 3.612-2.93 2.04-.88 2.34-6.11 4.59z"/>
		<path fill="#e2c786" d="M264.316 145.675l-30.258 18.74 4.295-.39.586 2.538-4.89 2.733-2.54 1.756 3.9.196 8.98-1.757 28.69-28.11-8.79 4.3"/>
		<path fill="#c1a574" d="M391.723 216.65l-6.345-8.786c-1.108-.25 2.196-4.028-1.073-4.685-.16.03-5.167-3.32-5.4-3.44l.58.1c.635-.13 3.362-2.24 4.298-1.77-1.756-2.35-6.417-3.4-6.417-3.4-.85.01-3.14-1.91-3.725-1.91 1.33-.44 6.1-2.63 6.1-2.63-.88.04-7.59-5.19-8.44-5.05.59-.59 6.33 1.04 6.92 1.04.3-.6-10.69-12.63-10.69-12.63l-76.06-39.18 105.15 106s-3.03-7.29 0-12.36c1.05-1.75-14.06-8.93-14.64-10.74a30.633 30.633 0 0 1 9.76-.58z"/>
		<path fill="#d6b982" d="M364.458 201.7l-5.335-9.464 3.71-.964-5.403-6.945 3.514-1.562-.39-4.88-5.856-3.32-4.1-8.002-47.045-23.035 60.905 58.172"/>
		<path fill="#c1a574" d="M291.447 134.344l-4.522 149.53 33.123-10.13c.43-6.67 2.244-13.932 3.807-20.704 0 5.927 2.69 9.153 4.437 14.82l15.962-2.23c-1.233-3.11-1.794-7.136-2.83-10.247 3.356 1.258 7.667 7.426 10.638 8.882 0 0 9.077-5.76 9.273-11.81 3.24.97 7.398 4.24 10.736 5.173l4.3-4.37c-1.85-3.864-1.57-8.13-5.07-10.76 4.69 1.563 8.53 4.088 11.13 8.08l12.24-8.534z"/>
		<path fill="#d6b982" d="M296.916 149.775l-2.928 59.538-2.148 35.724 4.88-9.566 4.295-3.12.39 4.88 7.223-3.9 2.147 4.1-.976 12.1 9.37-12.88 5.27-14.83 1.56 9.57 4.49 4.1v-8l10.64 7.81 9.95-2.14 5.85 8.79-3.42-29.67 10.34 7.23 7.22-3.32-9.57-9.56-64.62-56.8"/>
		<path fill="#e2c786" d="M296.037 150.41l-2.49 63.98 5.565-1.465 2.493-2.338c.84-.974 4.095-.883 5.034-4.72l.68 4.016 3.17 7.327-.08-12.346 4.35 4.254c-.43-1.136.94-4.295.29-5.27 3.51.585 12.05 5.953 12.05 5.953l2.27 1.54-.56-8.81L342 218.49l-7.03-18.74 10.25-3.8z"/>
		<path fill="#e5d2b1" d="M295.452 177.2l3.806-7.32 2.343 7.03 6.45 4.39-3.8-7.32.59-7.027 2.93 6.15 9.96 2.05-4.68-3.515-2.93-12.005-13.18-9.858-1.46 27.426"/>
		<path fill="#d6b982" d="M172.9 239.058l114.025 44.818 4.522-149.532L172.9 239.058"/>
		<path fill="#e2c786" d="M192.967 228.15l16.838-2.458c3.844-3.974 7.222-8.414 11.565-11.89-1.454 3.2-3.773 7.12-4.81 10.903l2.467-.36 9.663 6.15 3.604 4.27a19.227 19.227 0 0 0 4.888-5.735c2.342-3.514 11.127-5.27 14.64-8.785-1.756 2.343-8.046 9.152-7.413 11.302l6.38-4.567 4.97 7.613c.06-2.563 2.95-7.724 2.49-10.248 1.37 4.105 4.14 7.57 6.77 11.114l6.7-6.43 11.12 19.13 6.73-110.2z"/>
		<path fill="#e5d2b1" d="M249.675 175.542l-3.514 14.446 10.55-3.905 4.3-4.685v6.638l7.03-3.514-4.68 16.007 5.08-8.98 3.13-6.64 2.35 3.51 4.3 7.03 2.73-7.42 1.56-7.03 9.76 2.34-5.07-44.12-37.48 36.31"/>
		<path fill="#896328" d="M386.614 175.886l-97.527-48.056-5.477 10.884 97.08 47.436 5.924-10.264"/>
		<path fill="#cfa85e" d="M283.635 116.644l-7.373 7.005-4.083 5.4 7.37-7.01 4.08-5.41"/>
		<path fill="#896328" d="M393.57 257.628l5.29-4.973L279.552 122.05l-7.373 7.006 121.39 128.572"/>
		<path fill="#cfa85e" d="M405.722 246.245l-122.087-129.6-4.083 5.406L398.86 252.66l6.862-6.41"/>
		<path fill="#896328" d="M171.848 234.433l134.768-112.83 4.148 5.865L174.52 240.334l-2.672-5.9"/>
		<path fill="#cfa85e" d="M171.848 234.433l-7.252-7.098 134.85-112.567 7.17 6.836-134.768 112.83"/>
		<path fill="#704e22" d="M164.596 227.335l7.252 7.098 2.67 5.9-7.25-7.097-2.672-5.9"/>
		<path fill="#cfa85e" d="M300.05 118.426l.184-4.508-12.173-.325-6.89 169.654.46.012-.18 4.5 12.18.32 6.89-169.66-.45-.02"/>
		<path fill="#704e22" d="M293.342 283.57l-12.173-.323.27 4.52 12.17.325-.28-4.52"/>
		<path fill="#b07e09" d="M300.234 113.918l-6.892 169.653.276 4.53 6.89-169.65-.274-4.52" opacity=".9"/>
		<path fill="#cfa85e" d="M378.783 170.877l-75.962-36.83-.41.347 84.21 41.492-7.83-5.01"/>
		<path fill="#c1a574" d="M281.22 284.063l.493-14.187-6.553 4.25-4.392-1.463-1.757-8.2-4.1 7.614-6.73-2.928-1.46-5.57-12.3-2.05-8.78-.59-7.02-8.79-2.58 5.5-.63-5.5-5.85.88 1.47-6.15-15.3-15.61-24.4 5.46 19.66-18-28.71 16.55-4.97-2.07-6.812 1.81-23.207 20.63-18.23 8.65-12.74 12.44 5.47 12.26h6.297l15.32 11.04-.8-7.5 9.66 17.28 7.9-3.22 5.74.37 9.49 9.97 7.1-.268c.34-2.546 5.49-5.397 5.49-5.397l2.34 14.05c2.014-1.246 7.03-2.05 7.03-2.05l9.952 7.612 2.38-2.92 14.755-2.247 8.75-5 6.09 1.03 2.93-10.17 15.68-2.84 12.3-13.86 18.36-7.68 11.215-2.96z"/>
		<path fill="#d6b982" d="M209.28 282.867c0-7.106 6.172-14.1 9.176-20.106.86-1.14-13.082 2.77-12.298 1.76l2.147-11.52c-.533.51-13.56 1.53-14.055 2.15-1.757 2.35.586 4.69 2.343 6.44-4.685-.58-8.785 2.93-13.47.59 1.757.59 1.172-1.17 1.757-1.75-2.57-4.11.16-11.69-.78-16.2-4.776 1.84-9.638 4.06-14.446 5.66 3.514 2.35-1.17 4.69-2.928 5.86-.586-1.75 0-3.51 0-5.27.415-2.49 3.185-4.1 4.135-6.49a24.734 24.734 0 0 0-15.83-1.99l-1.3 1.61c3.96.57 6.21 2.71 4.22 5.7q-5.57 8.56-14.51 7.04L135 266.81a26.467 26.467 0 0 1 18.88-2.695l-2.196 4.4 11.49 2.95.505 5.257-7.96 9.243c11.98-.22 24.47-3.42 34.25-10.52l-3.28 9.303 3.53 7.27 4.43-6.665 9.42 15.634 12.74-2.78-.59 11.42 7.22-7.47c.66-2.6 1.34-4.997-.49-7.753a42.635 42.635 0 0 0 9.95-10.54c-.33 8.776-1.72 10.13 4.27 16.66l6.68.215 2.44-6.13 11.5-3.61-.28-.7c0-1.18 1.76-4.69 2.93-7.03a17.1 17.1 0 0 1 1.17 5.27c3.21-1.07 6.87-.27 10.48-2.04a23.327 23.327 0 0 1-2.1-4.71l-10.8-4.12a31.554 31.554 0 0 0-10.47 9.7c-1.76 1.75-2.93 0-4.1-.59 4.1-2.35 4.682-6.45 6.44-10.55a9.584 9.584 0 0 1 1.82-.98l-12.16 2.54c1.2-.47-1.84-7.29-1.8-7.87l-.49-.19c-5.17 1.67-23.95 11.57-29.14 13.13 0-1.17 5.19-1.56 0 0z"/>
	</symbol>
	<symbol id="building-hut-east" viewBox="0 0 512 512">
		<path fill="#231c10" d="M118.033 182.434l53.25-32.695 59.16 36.79-86.308 43.57-26.11-47.67"/>
		<path fill="#896328" d="M26.013 174.318l-.92 21.08.765 6 .727 8.79 104.292 26.56 16.15-11.39-8.24-70.52-4.702-12.79-108.993-27.27-.99 26.43-.44 10.83 2.342 11.567v10.687"/>
		<path fill="#aa8a51" d="M108.534 211.936c2.53.68 22.384 4.32 21.46 4.23-2.81-.26-12.953 1.7-15.203-.18 2.01 1.61 7.21.92 9.47 2.15a11.354 11.354 0 0 0 6.59 1.5c.28-.01-.38 2.89-.14 3.01l6.09-1.17c.32.25.63.5.69.56.41.35-7.13 3.65-6.64 3.85 1.61.67 4.91-1.77 6.62-1.42 0 .3 1.52-.03 1.62.26-1.28.678-5.38 4.518-8.54 5.708l-.58.923.88 2.05v3.26l60.44-30.22-13 .75-20.93 10.82-.36-6.15-2.89-.36 2.78-.87c-1.02-.15-5.12 1.53-6.29.66a44.875 44.875 0 0 1 6.22-1.68l-.86-13.62-1.39.22c-1.7.8-2.04 1.2-4.12.79 2.21 0 3.38-1.56 5.48-2.23l-.74-18.29s-4.07-32.97-4.66-43.29l-19.68 8.5s-.55 42.74.44 42.94c.53.11-6.05 3.27-6.66 3.29-.46.02 7.1.88 6.24 2.02h-11.59c-1.89.24-6.22 1.17-7.89 2.13.88 2.23 14.6-1.06 15.89-.66 0 0 3.17.02 3.85 1.51 0 0-.66 4.15-.25 4.2-.83.76-.9 6.01 0 5.98.45-.02-.41 3.52 0 3.71.32.15 8.06-1.53 8.11-1.19a72.362 72.362 0 0 0-8.11 3c-.6.37-8.41 1.26-8.55 1.22l8.56.867c-.47-.147-.16 1.318-.63 1.17-3.26-1.015-13.29.23-16.68-.16-2.46-.282-14.645-4.985-17.073-3.975 3.65 2.18 8.016 3.14 12.086 4.24z"/>
		<path fill="#704e22" d="M41.63 186.44c.96-.073 5.18.55 4.98.097-.84-.005-12.32-2.7-13.16-2.705.19-.54-.47-1.083-1.37-1.423a16.327 16.327 0 0 0-3.11-.68v-.46a7.606 7.606 0 0 0-3.04.61l-.07 1.82c2.333.81 12.935 2.94 15.795 2.73h-.024zm-15.547 2.786a4.287 4.287 0 0 0-.59.03l-.045 1.05 8.568 1.56a47.945 47.945 0 0 1 8.513 2.07c2.29.89 4.65 2.21 7.53 1.9-3.68-.22-6.4-1.66-9.24-2.79-2.32-.93-4.9-1.7-7.46-2.46a14.927 14.927 0 0 0-6.01-.85l-1.29-.486zm18.858-28.87a21.36 21.36 0 0 0 3.55.14l8.61-.15a30.005 30.005 0 0 1-11.53-2.5 13.55 13.55 0 0 0-2.84-1.1 17.346 17.346 0 0 0-2.22-.29l-6.88-.59a24.625 24.625 0 0 0 7.74-.81 32.705 32.705 0 0 1-8.8-1.24l-2.07-.49c-2.08-.5-4.19-1.01-6.36-1.4l.83 4.08a30.897 30.897 0 0 0 4.72 1.136c3.46.562 7.32.667 10.35 1.64a29.424 29.424 0 0 0 4.94 1.608zm55.89 38.654l3.84-3.77-44.17-11.25-3.84 3.772 22.09 5.673 22.08 5.575"/>
		<path fill="#aa8a51" d="M56.653 187.762l3.84-3.772-.097-13.253-3.844 3.772.098 13.25"/>
		<path fill="#0b1303" d="M78.732 158.6l-22.18 15.91 3.843-3.773L78.155 158l.577.6" opacity=".9"/>
		<path fill="#231c10" d="M60.4 171.747L78.73 158.6l25.926 25.39v11.25l-44.164-11.25-.09-12.243"/>
		<path fill="#cfa85e" d="M204.234 186.67l-.53 98.143 4.216-2.2.527-97.63-4.215 1.687"/>
		<path fill="#a57a1b" d="M199.692 189.8l-.166 92.82 4.178 2.194.593-95.014h-4.605"/>
		<path fill="#cfa85e" d="M289.077 158.55l.703 83.01 4.197-2.1-.1-77.16-4.8-3.75"/>
		<path fill="#a57a1b" d="M285.323 154.513l.26 84.95 4.197 2.098-.703-84.15-3.76-2.89"/>
		<path fill="#896328" d="M108.966 21.05l75.356 47.56 3.942-11.426-75.356-47.56-3.942 11.425"/>
		<path fill="#d6b982" d="M205.993 88.696c-5.23-2.25-3.18-2.55-6.11-4.59-.29-3.026 2.05-1.562 3.51-3.612l-5.96-8.482c-1.53-.505-8.42-1.502-9.86-2.157-.585 0 7.71-1.244 7.125-1.244-1.758-1.17-11.678-11.35-11.678-11.35l-68.745-36.51 121.315 96.08-29.615-28.13z"/>
		<path fill="#e2c786" d="M141.433 32.088l-8.79-4.3 28.69 28.11 8.98 1.757 3.9-.196-2.54-1.76-4.89-2.74.586-2.54 4.29.39-30.26-18.74"/>
		<path fill="#c1a574" d="M13.98 103.036a30.633 30.633 0 0 1 9.76.58c-.58 1.81-15.69 8.99-14.64 10.74 3.03 5.07 0 12.36 0 12.36l105.15-106-76.06 39.18S27.2 71.926 27.5 72.526c.59 0 6.33-1.63 6.92-1.04-.85-.14-7.56 5.09-8.44 5.05 0 0 4.77 2.19 6.1 2.63-.584 0-2.874 1.92-3.724 1.91 0 0-4.66 1.05-6.417 3.4.93-.47 3.66 1.64 4.29 1.77l.58-.1c-.24.12-5.24 3.47-5.4 3.44-3.27.657.03 4.435-1.08 4.685L14 103.06z"/>
		<path fill="#d6b982" d="M41.264 88.107l60.905-58.172L55.12 52.97l-4.1 8.002-5.856 3.32-.39 4.88 3.514 1.562-5.402 6.945 3.71.96-5.336 9.46"/>
		<path fill="#c1a574" d="M11.05 128.45l12.24 8.535c2.6-3.992 6.44-6.517 11.13-8.08-3.5 2.63-3.22 6.896-5.07 10.76l4.3 4.37c3.34-.933 7.497-4.203 10.737-5.173.196 6.05 9.273 11.81 9.273 11.81 2.97-1.456 7.282-7.624 10.638-8.882-1.036 3.11-1.597 7.137-2.83 10.247l15.962 2.23c1.747-5.667 4.437-8.893 4.437-14.82 1.563 6.772 3.377 14.034 3.807 20.704l33.123 10.13-4.522-149.53z"/>
		<path fill="#d6b982" d="M108.843 36.238l-64.62 56.8-9.57 9.56 7.22 3.32 10.34-7.23-3.42 29.67 5.85-8.79 9.95 2.14 10.64-7.81v8l4.49-4.1 1.56-9.57 5.27 14.83 9.37 12.88-.976-12.1 2.147-4.1 7.223 3.9.39-4.88 4.295 3.12 4.88 9.566-2.148-35.724-2.928-59.538"/>
		<path fill="#e2c786" d="M60.502 82.357l10.25 3.8-7.03 18.74 13.19-15.96-.56 8.81 2.27-1.54s8.54-5.367 12.05-5.952c-.65.975.72 4.134.29 5.27l4.35-4.254-.08 12.35 3.17-7.32.68-4.01c.94 3.84 4.195 3.75 5.035 4.72l2.493 2.34 5.565 1.47-2.49-63.98z"/>
		<path fill="#e5d2b1" d="M110.24 63.608l-1.46-27.426L95.6 46.04l-2.93 12.005-4.68 3.515 9.96-2.05 2.93-6.15.59 7.027-3.8 7.32 6.45-4.39 2.344-7.03 3.806 7.32"/>
		<path fill="#d6b982" d="M232.822 125.465L114.275 20.75l4.522 149.533 114.025-44.818"/>
		<path fill="#e2c786" d="M116.153 24.366l6.73 110.2 11.12-19.13 6.7 6.43c2.63-3.544 5.4-7.01 6.77-11.114-.46 2.524 2.43 7.685 2.49 10.248l4.97-7.613 6.38 4.567c.633-2.15-5.657-8.96-7.413-11.302 3.513 3.515 12.298 5.27 14.64 8.785a19.227 19.227 0 0 0 4.888 5.735l3.604-4.27 9.663-6.15 2.467.36c-1.037-3.783-3.356-7.703-4.81-10.903 4.343 3.47 7.72 7.91 11.565 11.89l16.838 2.45z"/>
		<path fill="#e5d2b1" d="M156 61.936l-37.48-36.31-5.07 44.12 9.76-2.34 1.56 7.03 2.73 7.42 4.3-7.03 2.35-3.51 3.13 6.64 5.08 8.98-4.68-16.007 7.03 3.51V67.8l4.3 4.685 10.55 3.904-3.513-14.45"/>
		<path fill="#896328" d="M19.108 62.293l5.924 10.264 97.08-47.436-5.477-10.88L19.108 62.3"/>
		<path fill="#cfa85e" d="M122.093 3.036l4.08 5.41 7.37 7.01-4.083-5.4-7.373-7.005"/>
		<path fill="#896328" d="M12.153 144.035l121.39-128.572-7.373-7.006L6.862 139.062l5.29 4.973"/>
		<path fill="#cfa85e" d="M0 132.657l6.862 6.41L126.17 8.457l-4.083-5.405L0 132.652"/>
		<path fill="#896328" d="M233.874 120.84l-2.672 5.9L94.958 13.876l4.148-5.865 134.768 112.83"/>
		<path fill="#cfa85e" d="M233.874 120.84L99.106 8.01l7.17-6.835 134.85 112.567-7.252 7.098"/>
		<path fill="#704e22" d="M241.126 113.743l-2.672 5.9-7.25 7.097 2.67-5.9 7.252-7.098"/>
		<path fill="#cfa85e" d="M105.65 4.806l-.45.02 6.89 169.66 12.18-.32-.18-4.5.46-.012L117.66 0l-12.17.325.184 4.508"/>
		<path fill="#704e22" d="M112.393 169.98l-.28 4.52 12.17-.326.27-4.52-12.173.323"/>
		<path fill="#b07e09" d="M105.488.338l-.274 4.52 6.89 169.65.276-4.53L105.488.325" opacity=".9"/>
		<path fill="#cfa85e" d="M26.93 57.283l-7.83 5.01L103.31 20.8l-.41-.346-75.96 36.83"/>
		<path fill="#c1a574" d="M115.95 170.646l11.216 2.96 18.36 7.68 12.3 13.86 15.68 2.84 2.93 10.17 6.09-1.03 8.75 5 14.755 2.247 2.38 2.92 9.96-7.612s5.02.81 7.03 2.05l2.34-14.05s5.15 2.86 5.49 5.4l7.1.27 9.49-9.97 5.74-.37 7.9 3.22 9.66-17.28-.8 7.5 15.32-11.04h6.3l5.47-12.26-12.74-12.44-18.23-8.65-23.2-20.63-6.81-1.81-4.97 2.07-28.71-16.55 19.66 18-24.4-5.46-15.3 15.61 1.47 6.15-5.85-.88-.63 5.5-2.58-5.5-7.02 8.79-8.78.59-12.3 2.05-1.46 5.57-6.73 2.93-4.1-7.61-1.752 8.2-4.39 1.47-6.554-4.25.494 14.19z"/>
		<path fill="#d6b982" d="M196.433 169.266c-5.19-1.56 0-1.17 0 0-5.19-1.56-23.97-11.46-29.14-13.13l-.49.19c.04.58-3 7.4-1.8 7.87l-12.16-2.54a9.584 9.584 0 0 1 1.82.98c1.758 4.1 2.34 8.2 6.44 10.55-1.17.59-2.34 2.34-4.1.59a31.554 31.554 0 0 0-10.47-9.7l-10.8 4.12a23.327 23.327 0 0 1-2.1 4.71c3.61 1.77 7.27.97 10.48 2.04a17.1 17.1 0 0 1 1.17-5.27c1.17 2.34 2.93 5.85 2.93 7.03l-.28.7 11.5 3.61 2.44 6.13 6.68-.215c5.99-6.53 4.6-7.88 4.27-16.66a42.635 42.635 0 0 0 9.95 10.54c-1.83 2.76-1.15 5.16-.49 7.76l7.22 7.47-.59-11.42 12.74 2.78 9.42-15.63 4.43 6.67 3.53-7.27-3.28-9.3c9.78 7.1 22.27 10.3 34.25 10.52l-7.96-9.24.505-5.26 11.49-2.95-2.196-4.4a26.467 26.467 0 0 1 18.88 2.697l-8.44-10.46q-8.94 1.52-14.51-7.04c-1.99-2.99.26-5.13 4.22-5.7l-1.3-1.61a24.734 24.734 0 0 0-15.83 1.99c.95 2.39 3.72 4 4.134 6.49 0 1.76.586 3.52 0 5.27-1.758-1.17-6.442-3.51-2.928-5.86-4.808-1.6-9.67-3.82-14.446-5.66-.94 4.51 1.79 12.09-.78 16.2.585.58 0 2.34 1.757 1.75-4.69 2.34-8.79-1.17-13.47-.59 1.75-1.75 4.1-4.09 2.34-6.44-.5-.62-13.52-1.64-14.06-2.15l2.14 11.52c.78 1.01-13.16-2.9-12.3-1.76 3 6.007 9.17 13 9.17 20.107z"/>
	</symbol>
	<symbol id="building-laneway-south" viewBox="0 0 512 512">
		<path fill="#abadb0" d="M225.373 371.884v-9.377l-15.313 7.656v9.377l15.313-7.656"/>
		<path fill="#7d7e81" d="M194.75 262.805L164.125 285l7.657-3.826 30.624-22.196-7.656 3.827"/>
		<path fill="#33282d" d="M202.406 258.978l-30.624 22.196v46.882l61.247 30.624v-46.883l-30.624-52.82"/>
		<path fill="#bec0c2" d="M148.813 339.54v9.376l61.247 30.624v-9.377l-61.247-30.624"/>
		<path fill="#abadb0" d="M164.125 285v46.883l7.657-3.827v-46.882L164.125 285"/>
		<path fill="#bec0c2" d="M133.502 232.18v93.77l30.623 15.31V285l30.625-22.195V200.39l-61.248 31.79"/>
		<path fill="#d8d9da" d="M171.782 328.056l-7.657 3.827-15.312 7.656 61.247 30.623 15.313-7.656 7.656-3.827-61.248-30.624"/>
		<path fill="#bec0c2" d="M194.75 200.39v62.415l30.623 52.82v56.26l30.624 15.31v-93.77L194.75 200.39"/>
		<path fill="#abadb0" d="M255.998 293.426v93.77l122.5-61.243v-93.77l-122.5 61.243"/>
		<path fill="#d8d9da" d="M270.22 340.048l-83.57-127.67-5.97-9.12-92.025 46.008 4.92 9.644 87.04-43.514 84.683 129.375 4.92-4.722"/>
		<path fill="#7d7e81" d="M418.424 268.217l4.92-4.723-153.125 76.554-4.922 4.723 153.126-76.553"/>
		<path fill="#5e4951" d="M423.345 263.494l-90.78-138.69-153.127 76.554 90.78 138.69 153.127-76.554"/>
		<path fill="#ddb6b3" d="M241.78 172.712L88.656 249.266l90.783-47.908 153.126-76.554-90.783 47.908"/>
	</symbol>
	<symbol id="building-laneway-east" viewBox="0 0 512 512">
		<path fill="#abadb0" d="M197.972 247.08l15.313 7.656v-9.377l-15.313-7.66v9.374"/>
		<path fill="#7d7e81" d="M228.595 138l-7.656-3.826 30.62 22.196 7.654 3.826L228.594 138"/>
		<path fill="#33282d" d="M220.94 134.173l-30.624 52.82v46.883l61.247-30.624V156.37l-30.624-22.196"/>
		<path fill="#bec0c2" d="M274.532 214.735l-61.247 30.624v9.37l61.247-30.624v-9.376"/>
		<path fill="#abadb0" d="M259.22 160.196l-7.657-3.826v46.882l7.657 3.827v-46.89"/>
		<path fill="#bec0c2" d="M289.843 107.376l-61.248-31.79V138l30.625 22.196v56.26l30.623-15.31v-93.77"/>
		<path fill="#d8d9da" d="M251.564 203.25l-61.248 30.625 7.656 3.827 15.313 7.656 61.247-30.623-15.312-7.656-7.657-3.83"/>
		<path fill="#bec0c2" d="M228.595 75.586l-61.247 93.035v93.77l30.624-15.31v-56.26L228.595 138V75.587"/>
		<path fill="#abadb0" d="M167.347 168.622l-122.5-61.243v93.77l122.5 61.24v-93.77"/>
		<path fill="#d8d9da" d="M153.127 215.245l4.92 4.722L242.73 90.592l87.04 43.514 4.92-9.644-92.025-46.008-5.97 9.12-83.57 127.67"/>
		<path fill="#7d7e81" d="M4.922 143.414l153.126 76.553-4.922-4.723L0 138.69l4.92 4.723"/>
		<path fill="#5e4951" d="M0 138.69l153.127 76.554 90.78-138.69L90.78 0 0 138.69"/>
		<path fill="#ddb6b3" d="M181.563 47.908L90.78 0l153.126 76.554 90.783 47.908-153.13-76.554"/>
	</symbol>
	<symbol id="building-ranch-south" viewBox="0 0 512 512">
		<path fill="#351e17" d="M121.032 289.078l-38.186-3.51v62.405l38.185 19.093 31.58 15.79V320.45l-31.573-31.373"/>
		<path fill="#abadb0" d="M74.302 289.84v62.405l8.543-4.272v-62.405l-8.543 4.27"/>
		<path fill="#d8d9da" d="M121.03 367.066l-38.185-19.093-8.543 4.27 38.186 19.094 31.577 15.79 8.543-4.272-31.577-15.79"/>
		<path fill="#bec0c2" d="M238.028 278.08v93.648l87.68 43.84V321.92l-87.68-43.84"/>
		<path fill="#abadb0" d="M175.642 309.27v93.644l62.385-31.187V278.08l-62.385 31.19m211.236-80.26l-61.17 92.91v93.648l61.168-30.58 61.17-30.58v-93.645l-61.168-31.75"/>
		<path fill="#776461" d="M377.91 363.665V320.88l40.727-20.358v42.784l-40.726 20.36"/>
		<path fill="#351e17" d="M357.548 373.844V331.06l20.363-10.18v42.785l-20.36 10.18"/>
		<path fill="#d8d9da" d="M357.548 373.844v-4.234l61.09-30.538-.002 4.234-61.088 30.538"/>
		<path fill="#bec0c2" d="M369.275 368.108v-42.785l3.046-1.525v42.785l-3.04 1.525M144.07 262.315l-31.58-46.955-38.187 12.074-38.187 12.072v93.646L74.3 352.244V289.84l38.186 3.51 31.577 31.37v62.406l31.577 15.788V309.27l-31.576-46.955"/>
		<path fill="#7d7e81" d="M182.882 334.92l54.77-27.38-4.915-5.724-49.855 24.924v8.18"/>
		<path fill="#d8d9da" d="M107.516 207.85L11.52 242.067v7.174l95.996-28.153 75.366 113.84v-8.182l-75.366-118.89"/>
		<path fill="#7d7e81" d="M237.65 307.54l98.06 49.028-4.915-4.716-98.058-50.036 4.914 5.723m159.86-67.95l98.06 49.03-85.75-45.258-98.06-49.03 85.75 45.257"/>
		<path fill="#bec0c2" d="M409.815 231.143l-79.02 120.71 4.915 4.715 74.105-113.2 85.75 45.255 4.915-9.63-90.665-47.85"/>
		<path fill="#bb5a3f" d="M107.516 207.85l75.366 118.89 49.855-24.924 3.653-158.392-128.874 64.427"/>
		<path fill="#e3856e" d="M61.376 217.142L11.52 242.066l95.996-34.215 128.874-64.42-175.014 73.716"/>
		<path fill="#a54122" d="M232.737 301.816l98.058 50.036 79.02-120.71-98.06-49.03-79.018 119.704"/>
		<path fill="#a54122" d="M232.737 301.816l79.02-119.703-75.367-38.69-3.653 158.393"/>
		<path fill="#a54122" d="M140.396 96.433l-79.02 120.71 175.014-73.72-95.994-46.99"/>
		<path fill="#7d7e81" d="M342.997 268.97l-24.918 7.602v28.188l1.08-.54 23.832-35.25"/>
		<path fill="#bec0c2" d="M292.5 237.716l-25.58 13.277v28.188l25.58 12.79 25.58 12.79v-28.183L292.5 237.72"/>
		<path fill="#7d7e81" d="M312.19 286.63l28.5-14.248 8.99-6.754-32.575 16.285-4.915 4.717m-54.98-24.925l49.68-24.835 28.737-15.167-49.68 24.836-28.737 15.16"/>
		<path fill="#515151" d="M271.03 277.314v-1.257l40.726 20.358v1.258l-40.726-20.36m0-3.633v-1.256l40.726 20.358v1.258l-40.726-20.36m0-3.63v-1.26l40.726 20.36v1.257L271.03 270.05m0-3.634v-1.258l40.726 20.36v1.256l-40.726-20.358m0-3.633v-1.258l40.726 20.36v1.257l-40.726-20.36m0-3.632v-1.258l40.726 20.36v1.257l-40.726-20.36" opacity=".9"/>
		<path fill="#d8d9da" d="M285.948 234.314l-33.652 17.76 4.914 9.63 28.738-15.165 26.242 40.09 4.915-4.72-31.157-47.6"/>
		<path fill="#bb5a3f" d="M317.105 281.913l32.575-16.285-6.683-59.834-57.05 28.52 31.158 47.6"/>
		<path fill="#e3856e" d="M252.296 252.074l33.652-17.76 57.05-28.52-41.024 21.445-49.678 24.83"/>
		<path fill="#fff" d="M372.32 366.583v-42.785l46.317-23.276v42.784l-46.316 23.277" opacity=".21"/>
		<path fill="#d8d9da" d="M413.11 303.3v38.49l5.526 1.516v-42.784l-5.526 2.777"/>
	</symbol>
	<symbol id="building-ranch-east" viewBox="0 0 512 512">
		<path fill="#351e17" d="M379.442 192.644l-31.573 31.373v62.406l31.58-15.79 38.18-19.093v-62.405l-38.187 3.51"/>
		<path fill="#abadb0" d="M426.178 193.405l-8.543-4.27v62.405l8.543 4.272v-62.405"/>
		<path fill="#d8d9da" d="M379.45 270.632l-31.578 15.79 8.543 4.272 31.577-15.79 38.186-19.094-8.543-4.27-38.185 19.093"/>
		<path fill="#bec0c2" d="M262.452 181.647l-87.68 43.84v93.648l87.68-43.84v-93.648"/>
		<path fill="#abadb0" d="M324.838 212.837l-62.385-31.19v93.647l62.385 31.187v-93.64m-211.236-80.26l-61.168 31.75v93.648l61.17 30.58 61.168 30.58V225.49l-61.17-92.91"/>
		<path fill="#776461" d="M122.57 267.233l-40.727-20.36V204.09l40.727 20.357v42.785"/>
		<path fill="#351e17" d="M142.93 277.412l-20.36-10.18v-42.785l20.362 10.18v42.784"/>
		<path fill="#d8d9da" d="M142.932 277.41l-61.088-30.537-.002-4.234 61.09 30.532v4.234"/>
		<path fill="#bec0c2" d="M131.2 271.675l-3.04-1.525v-42.785l3.045 1.525v42.785m225.21-105.793l-31.575 46.955v93.644l31.577-15.782V228.29l31.577-31.37 38.186-3.51v62.403l38.184-19.09v-93.647L426.177 131l-38.187-12.073-31.58 46.955"/>
		<path fill="#7d7e81" d="M317.598 238.487v-8.18l-49.855-24.924-4.915 5.724 54.77 27.38"/>
		<path fill="#d8d9da" d="M392.964 111.423l-75.366 118.89v8.182l75.366-113.84 95.996 28.153v-7.174l-95.996-34.217"/>
		<path fill="#7d7e81" d="M262.83 211.106l4.913-5.723-98.058 50.036-4.915 4.71 98.06-49.028M102.97 143.15l85.75-45.256-98.06 49.03-85.75 45.258 98.06-49.03"/>
		<path fill="#bec0c2" d="M90.665 134.71L0 182.56l4.915 9.63 85.75-45.255 74.105 113.2 4.915-4.715-79.02-120.71"/>
		<path fill="#bb5a3f" d="M392.964 111.418L264.09 46.99l3.653 158.393 49.855 24.924 75.366-118.89"/>
		<path fill="#e3856e" d="M439.104 120.714L264.09 46.998l128.874 64.42 95.996 34.215-49.856-24.924"/>
		<path fill="#a54122" d="M267.743 205.383L188.725 85.68l-98.06 49.03 79.02 120.71 98.058-50.037"/>
		<path fill="#a54122" d="M267.743 205.383L264.09 46.99l-75.367 38.69 79.02 119.703M360.083 0L264.09 46.99l175.014 73.72L360.084 0"/>
		<path fill="#7d7e81" d="M157.49 172.537l23.83 35.25 1.08.54V180.14l-24.917-7.603"/>
		<path fill="#bec0c2" d="M207.98 141.287l-25.58 38.858v28.183l25.58-12.79 25.58-12.79V154.56l-25.58-13.277"/>
		<path fill="#7d7e81" d="M188.29 190.197l-4.915-4.717-32.575-16.285 8.99 6.754 28.5 14.242m54.98-24.93l-28.737-15.16-49.68-24.837 28.737 15.166 49.68 24.836"/>
		<path fill="#515151" d="M229.45 180.88l-40.726 20.36v-1.258l40.726-20.358v1.257m0-3.63l-40.726 20.36v-1.26l40.726-20.36v1.26m0-3.63l-40.726 20.358v-1.257l40.726-20.36v1.26m0-3.634l-40.726 20.358v-1.254l40.726-20.36v1.256m0-3.634l-40.726 20.36v-1.258l40.726-20.36v1.258m0-3.634l-40.726 20.36v-1.258l40.726-20.36v1.257" opacity=".9"/>
		<path fill="#d8d9da" d="M214.532 137.876l-31.157 47.6 4.915 4.72 26.242-40.09 28.738 15.165 4.914-9.63-33.652-17.76"/>
		<path fill="#bb5a3f" d="M183.375 185.48l31.158-47.6-57.05-28.52-6.683 59.835 32.575 16.285"/>
		<path fill="#e3856e" d="M248.184 155.636l-49.678-24.83-41.024-21.445 57.05 28.52 33.652 17.76"/>
		<path fill="#fff" d="M128.16 270.15l-46.317-23.277V204.09l46.317 23.275v42.785" opacity=".21"/>
		<path fill="#d8d9da" d="M87.37 206.866l-5.526-2.777v42.78l5.526-1.518v-38.49"/>
	</symbol>
	<symbol id="building-villa-south" viewBox="0 0 512 512">
		<path fill="#7d7e81" d="M454.534 273.065v7.047l47.662-23.826v-7.047l-47.662 23.82"/>
		<path fill="#abadb0" d="M405.605 248.6l48.93 24.465 47.66-23.826-48.927-24.47-47.663 23.82"/>
		<path fill="#2f493a" d="M405.606 205.174V248.6l-62.285 31.137.01 36.267 57.41 28.703 53.8 26.9.01-141.968-48.93-24.47" opacity=".5"/>
		<path fill="#6d6861" d="M454.533 371.607l-67.655-33.827-168.12 25.12v15.375L186.78 394.26l111.24 55.677 156.51-78.33"/>
		<path fill="#c1b7a7" d="M218.758 259.38l-58.055 86.465 65.142 32.266-28.372 14.23 100.547 49.8 143.215-72.53-222.477-110.23"/>
		<path fill="#58595b" d="M86.57 213.64l-20.072 22.25v66.256l152.26 76.13v-98.543L86.568 213.64"/>
		<path fill="#7d7e81" d="M71.103 304.448l125.838 62.92.01-69.85L71.11 233.9v70.546"/>
		<path fill="#d8d9da" d="M93.808 315.8l70.317 35.16.006-10.22-59.81-29.972-10.51 5.032"/>
		<path fill="#273849" d="M104.315 271.48l59.816 30.28v38.98l-59.81-29.972V271.48"/>
		<path fill="#0c0c0c" d="M392.266 304.21v90.194L343.32 371.54v-91.803l48.946 24.472"/>
		<path fill="#605b5c" d="M398.936 307.92v83.148l-6.67 3.336v-83.148l6.67-3.336"/>
		<path fill="#0c0c0c" d="M305.992 347.143l-7.97 3.985v91.01l7.97-4.035v-90.96"/>
		<path fill="#6d6861" d="M298.02 351.128l-7.968-3.985v98.81l7.97 3.984v-98.81"/>
		<path fill="#161616" d="M218.757 378.275l-31.975 15.984v-72.29l31.976-15.99v72.28" opacity=".9"/>
		<path fill="#605b5c" d="M392.266 304.21v7.046l62.268-31.144v-7.047l-62.268 31.144"/>
		<path fill="#0c0c0c" d="M343.32 279.737l18.063 16.077 30.883 15.442v-7.047l-48.946-24.48"/>
		<path fill="#c1b7a7" d="M343.32 279.737l62.285-31.136 48.93 24.47-62.27 31.15-48.944-24.47"/>
		<path fill="#abadb0" d="M93.808 315.8l10.507-5.032v-31H93.808V315.8"/>
		<path fill="#7d7e81" d="M405.605 248.6l-62.284 31.137.01-69.84 62.29-31.137v69.84"/>
		<path fill="#273849" d="M387.72 257.556l-25.39 12.692.002-28.47 25.388-12.69v28.468"/>
		<path fill="#7d7e81" d="M405.607 145.453l-124.57 62.27v103.15l62.284-31.136.01-43.427v-26.414l62.29-31.136v-33.307"/>
		<path fill="#bec0c2" d="M218.76 204.146v14.106l-69.91-79.02-62.28 15.122v51.032l132.188 66.094v8.253l62.28 31.14v-103.15l-62.28-3.577"/>
		<path fill="#273849" d="M109.34 177.5l69.15 34.957v38.98l-69.15-34.65V177.5m71.328 34.872l99.795 5.408 170.436-85.2-99.8-5.41-170.44 85.202M216.09 78.86l-170.436 85.2 81.075-16.797 170.43-85.2-81.08 16.797"/>
		<path fill="#3f6382" d="M297.17 62.063l53.934 65.108-170.436 85.21-53.935-65.11 170.436-85.2"/>
		<path fill="#bec0c2" d="M450.9 132.58l-170.437 85.2 2.13 8.233 170.435-85.2-2.13-8.234"/>
		<path fill="#d8d9da" d="M280.463 217.78l-99.795-5.408-53.935-65.11-81.075 16.797 3.114 8.16 77.96-16.15 50.822 61.91 5.244 2.62 99.795 5.41-2.13-8.24"/>
		<path fill="#768ea5" d="M109.34 177.5l21.75 11.02v38.98l-21.75-10.713V177.5"/>
		<path fill="#b6ccdd" d="M123.74 184.812l2.025 1.084v38.98l-2.025-.777v-39.29"/>
		<path fill="#d8d9da" d="M237.186 229.015l27.71 14.168v41.94l-27.71-13.77v-42.338"/>
		<path fill="#445d7b" d="M240.313 235.346l21.457 10.97v32.478l-21.458-10.664v-32.784"/>
		<path fill="#aabcb2" d="M392.267 260.782v43.427l62.267-31.15v-43.42l-62.267 31.14" opacity=".5"/>
		<path fill="#518267" d="M194.484 390.944L298.02 442.14l.002-72.283-103.538-51.195v72.282" opacity=".5"/>
		<path fill="#8faa99" d="M343.325 217.693l-.004 62.044 48.94 43.56.01-62.515-48.94-43.09M186.78 394.26l111.24 55.677v-72.282l-111.24-55.68v72.284m111.24 55.67l94.228-47.198.01-72.278-94.236 47.19v72.282m156.512-176.87L392.266 304.2l-.017 98.53 62.28-31.137v-98.54" opacity=".5"/>
		<path fill="#518267" d="M392.266 311.256l-.005 19.222v-.014l-94.23 47.19v64.485l148.78-75.33v-83.13l-54.54 27.57" opacity=".5"/>
		<path fill="#abadb0" d="M75.03 269.57l-7.97 3.985V379.05l7.97-3.985V269.57"/>
		<path fill="#d8d9da" d="M67.06 273.555l-7.97-3.985v105.495l7.97 3.985V273.555"/>
		<path fill="#abadb0" d="M28.553 246.332l-7.97 3.984-.002 105.495 7.98-3.98v-105.5"/>
		<path fill="#d8d9da" d="M20.583 250.316l-7.97-3.985-.002 105.5 7.97 3.99.01-105.49"/>
		<path fill="#6b9989" d="M9.804 243.76v-24.233l76.766-38.375v24.234L9.803 243.76" opacity=".65"/>
		<path fill="#abadb0" d="M9.804 243.76l55.51 27.756 153.444-.036-132.19-66.094L9.805 243.76"/>
		<path fill="#c1b7a7" d="M91.815 208.01l-71.263 35.75 44.763 21.148 145.638 2.67-119.138-59.57"/>
		<path fill="#6b9989" d="M91.815 208.01v-24.235l-71.52 35.752.257 24.234 71.263-35.75" opacity=".65"/>
		<path fill="#a9b5af" d="M65.315 271.516v-24.234l-55.51-27.755v24.234l55.51 27.76" opacity=".8"/>
		<path fill="#6b9989" d="M218.758 271.48v-24.234l-153.443.036v24.234l153.443-.036" opacity=".65"/>
		<path fill="#bec0c2" d="M218.758 271.48l-153.443.036v8.253l153.443-.04v-8.26"/>
		<path fill="#d8d9da" d="M65.315 279.77v-8.254L9.805 243.76v8.254l55.51 27.755"/>
		<path fill="#2b705c" d="M211.572 243.653l-143.185-.08-48.092-24.046 71.52-35.752-5.245-2.623-76.766 38.375 55.51 27.755 153.444-.036-7.186-3.593" opacity=".85"/>
		<path fill="#bec0c2" d="M182.406 327.177l117.902 58.044 2.286-.42-124.564-60.41 4.376 2.8"/>
		<path fill="#3f6382" d="M218.758 279.733L199.07 295.96l-21.04 28.424 40.728-44.65"/>
		<path fill="#273849" d="M218.758 279.733l-40.728 44.65 124.564 60.41-21.557-73.92-62.28-31.14"/>
		<path fill="#3f6382" d="M281.037 310.872l21.557 73.922 103.07-49.594-13.406-11.904-48.937-43.56-62.28 31.136"/>
		<path fill="#d8d9da" d="M343.325 217.693l62.752 54.94 1.63-4.13-64.385-58.607.003 7.797"/>
		<path fill="#3f6382" d="M343.322 209.896l64.385 58.606 62.263-31.146-64.364-58.596-62.284 31.136"/>
		<path fill="#bec0c2" d="M468.342 241.49l1.628-4.134-62.263 31.146-1.63 4.132 62.265-31.145"/>
	</symbol>
	<symbol id="building-villa-east" viewBox="0 0 512 512">
		<path fill="#7d7e81" d="M47.662 210.996L0 187.176v7.047l47.662 23.826V211"/>
		<path fill="#abadb0" d="M96.59 186.526l-47.662-23.82L0 187.176l47.66 23.826 48.93-24.465"/>
		<path fill="#2f493a" d="M96.575 143.106l-48.93 24.47.01 141.968 53.8-26.9 57.41-28.703.01-36.26-62.285-31.14v-43.43" opacity=".5"/>
		<path fill="#6d6861" d="M47.666 309.544l156.51 78.33 111.24-55.677-31.978-15.985v-15.375l-168.12-25.12-67.655 33.827"/>
		<path fill="#c1b7a7" d="M283.438 197.318L60.96 307.548l143.216 72.53 100.547-49.8-28.372-14.23 65.15-32.266-58.055-86.465"/>
		<path fill="#58595b" d="M415.628 151.577l-132.19 66.093v98.543l152.26-76.13v-66.256l-20.072-22.25"/>
		<path fill="#7d7e81" d="M431.086 242.383v-70.546l-125.84 63.618.01 69.85 125.837-62.92"/>
		<path fill="#d8d9da" d="M408.385 253.737l-10.51-5.032-59.81 29.972.006 10.22 70.32-35.16"/>
		<path fill="#273849" d="M397.875 209.417v39.288l-59.81 29.972v-38.98l59.816-30.28"/>
		<path fill="#0c0c0c" d="M109.93 242.146l48.946-24.472v91.803L109.93 332.34v-90.193"/>
		<path fill="#605b5c" d="M103.26 245.857l6.67 3.336v83.148l-6.67-3.33v-83.15"/>
		<path fill="#0c0c0c" d="M196.204 285.08v90.96l7.97 4.035v-91.01l-7.97-3.985"/>
		<path fill="#6d6861" d="M204.174 289.064v98.81l7.97-3.984v-98.81l-7.968 3.985"/>
		<path fill="#161616" d="M283.438 316.196v-72.28l31.976 15.99v72.29l-31.975-15.984" opacity=".9"/>
		<path fill="#605b5c" d="M109.93 242.146l-62.268-31.144v7.047l62.268 31.14v-7.05"/>
		<path fill="#0c0c0c" d="M158.876 217.666l-48.946 24.48v7.047l30.883-15.442 18.063-16.07"/>
		<path fill="#c1b7a7" d="M158.875 217.688l-48.944 24.47-62.27-31.15 48.93-24.47 62.29 31.136"/>
		<path fill="#abadb0" d="M408.388 253.737v-36.032H397.88v31l10.508 5.032"/>
		<path fill="#7d7e81" d="M96.575 186.537v-69.84l62.29 31.137.01 69.84-62.284-31.137"/>
		<path fill="#273849" d="M114.476 195.493v-28.468l25.388 12.69.002 28.47-25.39-12.692"/>
		<path fill="#7d7e81" d="M96.575 83.39v33.307l62.29 31.136v26.414l.01 43.427 62.284 31.136V145.66L96.59 83.39"/>
		<path fill="#bec0c2" d="M283.438 142.083l-62.28 3.577v103.15l62.28-31.14v-8.253l132.188-66.094V92.29l-62.28-15.12-69.91 79.02v-14.107"/>
		<path fill="#273849" d="M392.856 115.437v39.287l-69.15 34.65v-38.98l69.15-34.957m-71.32 34.872L151.096 65.1l-99.8 5.41 170.437 85.2 99.795-5.408M286.118 16.79L205.038 0l170.43 85.2 81.073 16.797-170.43-85.2"/>
		<path fill="#3f6382" d="M205.027.008l170.436 85.2-53.935 65.11-170.436-85.21L205.026 0"/>
		<path fill="#bec0c2" d="M51.298 70.516l-2.13 8.234 170.435 85.2 2.13-8.233-170.437-85.2"/>
		<path fill="#d8d9da" d="M221.733 155.706l-2.13 8.24 99.795-5.41 5.244-2.62 50.822-61.91 77.96 16.15 3.114-8.16L375.463 85.2l-53.935 65.11-99.795 5.407"/>
		<path fill="#768ea5" d="M392.856 115.437v39.287l-21.75 10.713v-38.98l21.75-11.02"/>
		<path fill="#b6ccdd" d="M378.456 122.746v39.29l-2.025.777v-38.98l2.03-1.084"/>
		<path fill="#d8d9da" d="M265.01 166.952v42.338l-27.71 13.77v-41.94l27.71-14.168"/>
		<path fill="#445d7b" d="M261.884 173.283v32.784l-21.458 10.664v-32.47l21.457-10.97"/>
		<path fill="#aabcb2" d="M109.93 198.716l-62.268-31.14v43.42l62.267 31.15V198.72" opacity=".5"/>
		<path fill="#518267" d="M307.712 328.88V256.6l-103.538 51.194.002 72.283 103.536-51.196" opacity=".5"/>
		<path fill="#8faa99" d="M158.865 155.63l-48.94 43.09.01 62.514 48.94-43.56-.004-62.044m156.55 176.566v-72.284l-111.24 55.68v72.282l111.24-55.677m-111.24 55.665V315.58l-94.234-47.19.01 72.278 94.227 47.198M47.667 210.99v98.54l62.28 31.137-.017-98.53-62.27-31.145" opacity=".5"/>
		<path fill="#518267" d="M109.925 249.186l-54.54-27.57v83.13l148.78 75.33V315.59l-94.23-47.19v.015l-.005-19.222" opacity=".5"/>
		<path fill="#abadb0" d="M427.166 207.507v105.495l7.97 3.985V211.492l-7.97-3.985"/>
		<path fill="#d8d9da" d="M435.136 211.492v105.495l7.97-3.985V207.507l-7.97 3.985"/>
		<path fill="#abadb0" d="M473.635 184.268v105.5l7.98 3.98-.002-105.495-7.97-3.984"/>
		<path fill="#d8d9da" d="M481.605 188.268l.01 105.49 7.97-3.99-.002-105.5-7.97 3.985"/>
		<path fill="#6b9989" d="M492.393 181.697l-76.767-38.374V119.09l76.766 38.374v24.233" opacity=".65"/>
		<path fill="#abadb0" d="M492.39 181.697l-76.762-38.374-132.19 66.094 153.444.036 55.51-27.756"/>
		<path fill="#c1b7a7" d="M410.38 145.945l-119.137 59.57 145.638-2.67 44.77-21.148-71.262-35.75"/>
		<path fill="#6b9989" d="M410.38 145.948l71.264 35.75.257-24.234-71.52-35.752v24.235" opacity=".65"/>
		<path fill="#a9b5af" d="M436.88 209.458l55.51-27.76v-24.234l-55.51 27.755v24.23" opacity=".8"/>
		<path fill="#6b9989" d="M283.438 209.417l153.443.036V185.22l-153.44-.037v24.234" opacity=".65"/>
		<path fill="#bec0c2" d="M283.438 209.406v8.26l153.443.04v-8.253l-153.44-.036"/>
		<path fill="#d8d9da" d="M436.88 217.706l55.51-27.755v-8.25l-55.51 27.76v8.255"/>
		<path fill="#2b705c" d="M290.624 181.59l-7.186 3.593 153.444.036 55.51-27.76-76.766-38.378-5.245 2.622 71.52 35.75-48.09 24.047-143.18.08" opacity=".85"/>
		<path fill="#bec0c2" d="M319.79 265.128l4.376-2.8-124.564 60.41 2.286.42 117.902-58.044"/>
		<path fill="#3f6382" d="M283.438 217.67l40.728 44.65-21.04-28.423-19.688-16.227"/>
		<path fill="#273849" d="M283.44 217.67l-62.28 31.14-21.558 73.92 124.564-60.41-40.728-44.65"/>
		<path fill="#3f6382" d="M221.155 248.81l-62.28-31.137-48.937 43.56-13.406 11.904 103.07 49.594 21.557-73.92"/>
		<path fill="#d8d9da" d="M158.87 155.63l.004-7.797L94.49 206.44l1.63 4.13 62.75-54.94"/>
		<path fill="#3f6382" d="M158.874 147.833L96.59 116.697l-64.364 58.596L94.49 206.44l64.384-58.607"/>
		<path fill="#bec0c2" d="M33.854 179.426L96.12 210.57l-1.63-4.13-62.264-31.147 1.628 4.134"/>
	</symbol>
</svg>
