<svg xmlns="http://www.w3.org/2000/svg">
	<symbol id="icon-house" viewBox="0 0 64 64">
		<path d="M32 15L11 36v20a3 3 0 0 0 3 3h13.3V45.2a2 2 0 0 1 2-2h5.4a2 2 0 0 1 2 2V59H50a3 3 0 0 0 3-3V36z"/>
		<path d="M51.3 24.3V15h-4.6v4.7L32 5 3.6 33.5 7.2 37 32 12l24.8 25 3.6-3.6-9-9"/>
	</symbol>
	<symbol id="icon-cycle" viewBox="0 0 64 64">
		<path d="M55 18.833C55 8.45 42.664 0 27.5 0S0 8.45 0 18.833c0 6.164 4.347 12 11.05 15.723l6.13-6.128c-4.74-2.013-7.857-5.45-7.857-9.69 0-6.865 8.154-12.45 18.177-12.45s18.177 5.585 18.177 12.45c0 6.277-6.828 10.797-15.66 11.525l3.002-3.004a5 5 0 0 0 0-7.07L19.935 33.27 33.02 46.35a5 5 0 0 0 0-7.07l-.915-.912C45.083 36.696 55 28.143 55 18.833z"/>
	</symbol>
</svg>